<?xml version="1.0" encoding="UTF-8"?><svg id="Layer_2" xmlns="http://www.w3.org/2000/svg" viewBox="0 0 40.53 15.73"><g id="Layer_1-2"><g><path d="M0,12.22V1.84l.06-.06H3.84c2.31,0,3.42,1.53,3.42,3.28s-1.11,3.27-3.42,3.27h-.78c-.98,0-1.41,.52-1.41,1.5v2.38l-.06,.06H.06l-.06-.06ZM2.88,6.75h.92c1.21,0,1.73-.77,1.73-1.68s-.51-1.69-1.73-1.69h-.92c-.81,0-1.23,.44-1.23,1.23v.92c0,.79,.42,1.23,1.23,1.23Z"/><path d="M8.88,12.22V1.84l.06-.06h1.52l.06,.06v7.86c0,.68,.38,1.04,.99,1.04h.04l.06,.06v1.42l-.06,.06h-2.61l-.06-.06Z"/><path d="M12.62,9.96c0-1.4,1-2.31,2.46-2.31h1.81l.06-.04v-.62c0-.88-.63-1.23-1.33-1.23-.79,0-1.2,.44-1.32,.98l-.06,.06h-1.53l-.06-.06c.06-1.29,1-2.44,2.97-2.44,1.54,0,2.98,.71,2.98,2.62v2.77c0,.67,.36,1.05,.95,1.05h.04l.06,.06v1.42l-.06,.06h-4.52c-1.45,0-2.46-.92-2.46-2.32Zm2.76,.96h.52c.62,0,1.06-.33,1.06-.96s-.45-.95-1.06-.95h-.52c-.6,0-1.06,.33-1.06,.95s.46,.96,1.06,.96Z"/><path d="M20.44,15.67v-1.24l.06-.06h1.48c.66,0,1.04-.23,1.19-.78l.07-.27c.17-.68-.15-1.04-.73-1.04h-.17l-.06-.06-2.29-7.65,.06-.06h1.65l.06,.06,1.38,5.2c.12,.44,.32,.65,.66,.65s.52-.21,.65-.65l1.38-5.2,.06-.06h1.57l.06,.06-3.24,11.1-.06,.06h-3.72l-.06-.06Z"/><path d="M38.99,5.04l-3.64-1.24v-1.47l3.64,1.26v1.46ZM33.82,0V8.61c-.29-.1-.87-.15-1.21-.15-3.19,0-3.19,3.89,0,3.89,1.37,0,2.75-.87,2.75-1.94V5.57l3.64,1.22v3.52c-.29-.09-.87-.15-1.21-.15-3.19,0-3.19,3.89,0,3.89,1.37,0,2.75-.87,2.75-1.94V2.21l-6.71-2.21Z"/></g></g></svg>